<svg xmlns="http://www.w3.org/2000/svg"><style>:root svg:not(:target){display:none}</style><svg fill="none" id="basket-in-button" viewBox="0 0 20 16"><path fill-rule="evenodd" clip-rule="evenodd" d="m13.674 13.522.003-.022h1.347l-.03.21a2.667 2.667 0 0 1-2.64 2.29H3.646a2.667 2.667 0 0 1-2.64-2.29L.19 8 0 6.667h4.556l-.224-2.68A3.68 3.68 0 0 1 11.618 3h-1.37a2.348 2.348 0 0 0-4.587.875l.233 2.792H9.5V8H6.058l.222 2.667h3.44l.014-.167h1.338l-.014.167H12.5V12h-1.553l-.222 2.667h1.629c.663 0 1.226-.488 1.32-1.145ZM4.72 8H1.537l.381 2.667h3.024L4.72 8Zm1.893 6.667L6.391 12H9.61l-.222 2.667H6.613ZM5.053 12l.222 2.667H3.646a1.333 1.333 0 0 1-1.32-1.145L2.11 12h2.944ZM15.8 10V7.2H13V5.8h2.8V3h1.4v2.8H20v1.4h-2.8V10h-1.4Z" fill="#fff"></path></svg><svg fill="none" id="clock-icon" viewBox="0 0 50 56"><path fill-rule="evenodd" clip-rule="evenodd" d="M23 4h8v3h-3v3.021a22.873 22.873 0 0 1 10.503 3.058c1.851-1.931 6.252.167 4.76 3.657A22.93 22.93 0 0 1 50 33c.001 12.703-10.296 23-22.999 23S4 45.703 4 33c0-6.67 2.84-12.677 7.376-16.878-.217.2-.43.405-.64.614-2.029-3.029 2.584-6.154 4.761-3.658A22.873 22.873 0 0 1 26 10.021V7h-3V4Z" fill="#F0EBFF"></path><path fill-rule="evenodd" clip-rule="evenodd" d="M26 1h-6v1h6V1Zm-2 2h3V0h-8v3h3v3.021a22.873 22.873 0 0 0-9.606 2.565l-.14-.161c-1.538-1.768-3.859-1.442-5.3-.401-.739.535-1.351 1.314-1.602 2.254-.258.966-.11 2.025.554 3.015l.123.184A22.917 22.917 0 0 0 0 29c0 12.703 10.297 23 23 23s23-10.297 23-23c0-5.96-2.267-11.39-5.986-15.476l.169-.394c.462-1.083.492-2.128.169-3.043-.318-.9-.95-1.6-1.685-2.06-1.408-.884-3.534-1.055-4.89.364l-.181.19A22.874 22.874 0 0 0 24 6.02V3Zm-1 4c-3.86 0-7.487.994-10.64 2.74l-.36.207a22.001 22.001 0 0 0-3.93 2.895A21.941 21.941 0 0 0 1 29c0 12.15 9.85 22 22 22s22-9.85 22-22a21.931 21.931 0 0 0-6.821-15.925A22 22 0 0 0 34 9.947l-.364-.21A21.9 21.9 0 0 0 23 7ZM11.498 9.078a23.077 23.077 0 0 0-4.761 3.658 2.981 2.981 0 0 1-.436-.974c-.547-2.313 2.312-4.314 4.346-3.339.307.148.595.363.85.655Zm23.005 0a23.081 23.081 0 0 1 4.76 3.659c.167-.39.26-.762.291-1.114.21-2.336-2.31-3.742-4.103-3.14a2.326 2.326 0 0 0-.948.596ZM23 31a2 2 0 0 0 .864-3.804L22.95 27A2 2 0 0 0 23 31Zm-.636-4.932-1.346-4.936-.04-.147.048-.143 1.5-4.5.474-1.423.474 1.423 1.5 4.5.048.143-.04.147-1.346 4.936c.13.028.256.064.379.108l7.55-13.421.87.49-7.549 13.422a3 3 0 1 1-2.522-.6Zm-.342-5.053L23 24.6l.978-3.585L23 18.08l-.978 2.934Z" fill="#7859CF"></path></svg><svg fill="none" id="flash-icon" viewBox="0 0 42 56"><g fill-rule="evenodd" clip-rule="evenodd"><path d="M19.973 35.2 38.135 4 4 30.675 19.973 35.2Zm6.054-10.4L7.866 56 42 29.325 26.027 24.8Z" fill="#F0EBFF"></path><path d="M34.135 0 0 26.675 15.973 31.2 3.866 52 38 25.325 22.027 20.8 34.135 0Zm1.697 25.75-15.318-4.34L30.657 3.988 2.168 26.25l15.318 4.34L7.343 48.012 35.832 25.75Z" fill="#7859CF"></path></g></svg><svg fill="none" id="leaf-icon" viewBox="0 0 46 56"><g fill-rule="evenodd" clip-rule="evenodd"><path d="M38.707 22.122C39.477 15.557 40.204 9.35 46 4 19.507 4 11.847 12.128 8 18c-8.542 13.037-.915 25.67.71 28.086a808.174 808.174 0 0 0-2.741 5.51A848.331 848.331 0 0 1 4 55.56l.881.44c.635-1.268 1.298-2.608 1.984-3.996.848-1.716 1.732-3.505 2.647-5.322 2.595.867 14.453 4.183 21.988-4.682 5.657-6.655 6.452-13.438 7.207-19.878Z" fill="#F0EBFF"></path><path d="M5.232 41.055C9.19 33.258 13.686 25.095 18.267 20l.733.656C14.431 25.738 9.93 33.953 5.968 41.78A26.194 26.194 0 0 0 13.09 43c4.384.12 9.663-.96 13.648-5.648 5.46-6.423 6.225-12.946 6.983-19.406l.015-.129c.681-5.81 1.384-11.634 5.875-16.794-11.79.23-19.481 2.162-24.667 4.675-5.5 2.665-8.252 6.018-10.108 8.85C.283 21.498.518 28.31 1.903 33.426a28.925 28.925 0 0 0 2.483 6.182c.32.59.612 1.076.846 1.447Zm-.521 1.031C3.085 39.67-4.542 27.037 4 14 7.776 8.236 15.226.3 40.552.008 41.03.003 41.511 0 42 0c-.36.331-.699.666-1.02 1.004-4.866 5.116-5.551 10.96-6.273 17.118-.755 6.44-1.55 13.223-7.207 19.878-7.535 8.865-19.394 5.549-21.988 4.682-.915 1.817-1.799 3.606-2.647 5.322C2.179 49.392 1.516 50.732.88 52L0 51.56c.63-1.258 1.288-2.587 1.969-3.964a808.174 808.174 0 0 1 2.742-5.51Z" fill="#7859CF"></path></g></svg><svg fill="none" id="logo-desktop" viewBox="0 0 170 36"><path d="M140.08 26.336c-1.328 0-2.56-.208-3.696-.624a8.824 8.824 0 0 1-2.952-1.824 8.564 8.564 0 0 1-1.92-2.76c-.464-1.072-.696-2.248-.696-3.528 0-1.28.232-2.448.696-3.504a8.324 8.324 0 0 1 1.944-2.784 8.52 8.52 0 0 1 2.952-1.8c1.152-.432 2.408-.648 3.768-.648 1.584 0 3 .264 4.248.792 1.248.528 2.28 1.288 3.096 2.28l-3.024 2.736c-.576-.624-1.2-1.088-1.872-1.392-.656-.32-1.392-.48-2.208-.48-.72 0-1.376.112-1.968.336a4.063 4.063 0 0 0-1.512.984c-.416.416-.744.92-.984 1.512-.224.576-.336 1.232-.336 1.968 0 .704.112 1.352.336 1.944.24.592.568 1.104.984 1.536.416.416.912.744 1.488.984.592.224 1.24.336 1.944.336s1.392-.112 2.064-.336c.672-.24 1.352-.64 2.04-1.2l2.664 3.336c-.96.688-2.072 1.216-3.336 1.584a13.268 13.268 0 0 1-3.72.552Zm2.856-2.76V17.24h4.2v6.96l-4.2-.624Zm16.165 2.76c-1.344 0-2.584-.216-3.72-.648a9.096 9.096 0 0 1-2.976-1.824 8.657 8.657 0 0 1-1.944-2.784c-.464-1.056-.696-2.216-.696-3.48 0-1.264.232-2.424.696-3.48a8.39 8.39 0 0 1 1.944-2.76 8.891 8.891 0 0 1 2.976-1.848c1.136-.432 2.376-.648 3.72-.648 1.36 0 2.6.216 3.72.648a8.63 8.63 0 0 1 2.952 1.848 8.39 8.39 0 0 1 1.944 2.76c.48 1.056.72 2.216.72 3.48 0 1.264-.24 2.432-.72 3.504a8.39 8.39 0 0 1-1.944 2.76 8.824 8.824 0 0 1-2.952 1.824c-1.12.432-2.36.648-3.72.648Zm0-3.936a4.62 4.62 0 0 0 1.776-.336 4.064 4.064 0 0 0 1.44-.96c.416-.432.736-.944.96-1.536.24-.592.36-1.248.36-1.968 0-.736-.12-1.392-.36-1.968a4.216 4.216 0 0 0-.96-1.512c-.4-.432-.88-.76-1.44-.984a4.62 4.62 0 0 0-1.776-.336c-.64 0-1.24.112-1.8.336a4.202 4.202 0 0 0-1.44.984 4.7 4.7 0 0 0-.96 1.512c-.224.576-.336 1.232-.336 1.968 0 .72.112 1.376.336 1.968a5 5 0 0 0 .96 1.536 4.37 4.37 0 0 0 1.44.96c.56.224 1.16.336 1.8.336Z" fill="#333"></path><path fill-rule="evenodd" clip-rule="evenodd" d="M124 18c0 2.874-.599 5.59-1.663 8H109c2.463-3.772 5-8.34 5-13 0-5.998-4.062-11.047-9.584-12.547A14.348 14.348 0 0 1 108 0c8.837 0 16 8.059 16 18Zm-14-5a9 9 0 0 0-9-9c-6.65 0-9 8.507-9 14 0 9.941 7.163 18 16 18 4.739 0 8.996-2.318 11.926-6H101c.352-.449.72-.91 1.099-1.386C105.616 24.201 110 18.7 110 13Z" fill="#7859CF"></path><path d="M2.65 26V9.2h7.945c1.856 0 3.488.344 4.896 1.032 1.408.688 2.504 1.656 3.288 2.904.8 1.248 1.2 2.736 1.2 4.464 0 1.712-.4 3.2-1.2 4.464-.784 1.248-1.88 2.216-3.288 2.904-1.408.688-3.04 1.032-4.896 1.032H2.65Zm4.753-3.792h3c.96 0 1.792-.176 2.496-.528a4.013 4.013 0 0 0 1.68-1.584c.4-.704.6-1.536.6-2.496 0-.976-.2-1.808-.6-2.496a3.863 3.863 0 0 0-1.68-1.56c-.704-.368-1.536-.552-2.496-.552h-3v9.216ZM22.959 26V9.2h7.68c1.536 0 2.856.248 3.96.744 1.12.496 1.984 1.216 2.592 2.16.608.928.912 2.032.912 3.312 0 1.264-.304 2.36-.912 3.288-.608.912-1.472 1.616-2.592 2.112-1.104.48-2.424.72-3.96.72h-5.04l2.112-1.992V26h-4.752Zm10.392 0-4.176-6.12h5.064l4.2 6.12H33.35Zm-5.64-5.952-2.112-2.184h4.752c.992 0 1.728-.216 2.208-.648.496-.432.744-1.032.744-1.8 0-.784-.248-1.392-.744-1.824-.48-.432-1.216-.648-2.208-.648h-4.752l2.112-2.184v9.288ZM41.204 26V9.2h4.752V26h-4.752Zm8.613 0V9.2h3.912l9.264 11.184h-1.848V9.2h4.656V26H61.89l-9.264-11.184h1.848V26h-4.656Zm24.064-3.72-.264-5.328L80.841 9.2h5.232l-7.2 7.8-2.64 2.76-2.352 2.52ZM69.633 26V9.2h4.704V26h-4.704Zm11.28 0-5.472-6.936 3.096-3.312L86.433 26h-5.52Z" fill="#333"></path></svg><svg fill="none" id="logo-mobile" viewBox="0 0 32 36"><path fill-rule="evenodd" clip-rule="evenodd" d="M32 18c0 2.874-.599 5.59-1.663 8H17c2.463-3.772 5-8.34 5-13C22 7.002 17.939 1.953 12.416.453A14.35 14.35 0 0 1 16 0c8.837 0 16 8.059 16 18Zm-14-5a9 9 0 0 0-9-9c-6.65 0-9 8.507-9 14 0 9.941 7.163 18 16 18 4.739 0 8.996-2.318 11.926-6H9c.352-.449.72-.91 1.099-1.386C13.616 24.201 18 18.7 18 13Z" fill="#7859CF"></path></svg><svg fill="none" id="logo-tablet" viewBox="0 0 82 36"><path d="M74.08 26.336c-1.328 0-2.56-.208-3.696-.624a8.824 8.824 0 0 1-2.952-1.824 8.564 8.564 0 0 1-1.92-2.76c-.464-1.072-.696-2.248-.696-3.528 0-1.28.232-2.448.696-3.504a8.324 8.324 0 0 1 1.944-2.784 8.52 8.52 0 0 1 2.952-1.8c1.152-.432 2.408-.648 3.768-.648 1.584 0 3 .264 4.248.792 1.248.528 2.28 1.288 3.096 2.28l-3.024 2.736c-.576-.624-1.2-1.088-1.872-1.392-.656-.32-1.392-.48-2.208-.48-.72 0-1.376.112-1.968.336a4.063 4.063 0 0 0-1.512.984c-.416.416-.744.92-.984 1.512-.224.576-.336 1.232-.336 1.968 0 .704.112 1.352.336 1.944.24.592.568 1.104.984 1.536.416.416.912.744 1.488.984.592.224 1.24.336 1.944.336s1.392-.112 2.064-.336c.672-.24 1.352-.64 2.04-1.2l2.664 3.336c-.96.688-2.072 1.216-3.336 1.584a13.268 13.268 0 0 1-3.72.552Zm2.856-2.76V17.24h4.2v6.96l-4.2-.624Z" fill="#333"></path><path fill-rule="evenodd" clip-rule="evenodd" d="M58 18c0 2.874-.599 5.59-1.663 8H43c2.463-3.772 5-8.34 5-13C48 7.002 43.938 1.953 38.416.453A14.35 14.35 0 0 1 42 0c8.837 0 16 8.059 16 18Zm-14-5a9 9 0 0 0-9-9c-6.65 0-9 8.507-9 14 0 9.941 7.163 18 16 18 4.739 0 8.996-2.318 11.926-6H35c.352-.449.72-.91 1.099-1.386C39.616 24.201 44 18.7 44 13Z" fill="#7859CF"></path><path d="M1.852 26V9.2h7.944c1.856 0 3.488.344 4.896 1.032 1.408.688 2.504 1.656 3.288 2.904.8 1.248 1.2 2.736 1.2 4.464 0 1.712-.4 3.2-1.2 4.464-.784 1.248-1.88 2.216-3.288 2.904-1.408.688-3.04 1.032-4.896 1.032H1.852Zm4.752-3.792h3c.96 0 1.792-.176 2.496-.528a4.013 4.013 0 0 0 1.68-1.584c.4-.704.6-1.536.6-2.496 0-.976-.2-1.808-.6-2.496a3.863 3.863 0 0 0-1.68-1.56c-.704-.368-1.536-.552-2.496-.552h-3v9.216Z" fill="#333"></path></svg><svg fill="none" id="mobile-menu-button-close" viewBox="0 0 12 12"><path fill-rule="evenodd" clip-rule="evenodd" d="M5.025 6 0 .975.975 0 6 5.025 11.025 0 12 .975 6.975 6 12 11.025l-.975.975L6 6.975.975 12 0 11.025 5.025 6Z" fill="#333"></path></svg><svg fill="none" id="mobile-menu-button-open" viewBox="0 0 16 12"><path fill-rule="evenodd" clip-rule="evenodd" d="M0 0h16v1.5H0V0Zm0 5.25h16v1.5H0v-1.5Zm16 5.25H0V12h16v-1.5Z" fill="#333"></path></svg><svg fill="none" id="mobile-menu-button" viewBox="0 0 16 16"><path fill="#fff" d="M0 0h60v60H0z"></path><path fill-rule="evenodd" clip-rule="evenodd" d="M22 24h16v1.5H22V24Zm0 5.25h16v1.5H22v-1.5Zm16 5.25H22V36h16v-1.5Z" fill="#333"></path></svg><svg fill="none" id="pocket-icon" viewBox="0 0 52 56"><path d="M4 4h48l-4 44-20 8-20-8L4 4Z" fill="#F0EBFF"></path><path fill-rule="evenodd" clip-rule="evenodd" d="M1.004 0H0l.09 1L4 44l20 8 20-8 3.91-43L48 0H1.004Zm.091 1 .364 4H46.54l.364-4H1.095Zm40.812 5H6.093l.101 1.132-.498.045-.498.044L5.089 6H1.55L4.94 43.3 24 50.922l19.06-7.624L46.45 6h-3.54l-.108 1.221-.498-.044-.498-.045.1-1.132ZM6.092 11.62l-.498.044.396 4.442.498-.045.498-.044-.396-4.442-.498.044Zm.791 8.884-.498.044.396 4.442.498-.044.498-.044-.396-4.443-.498.045Zm.792 8.884-.498.045.396 4.442.498-.044.498-.045-.396-4.442-.498.044Zm.792 8.885-.498.044.198 2.221 1.979.808.189-.463.189-.463-1.415-.577-.144-1.614-.498.044Zm5.826 4.226-.189.462 3.959 1.616.188-.463.19-.463-3.959-1.615-.189.463Zm7.917 3.23-.19.463L24 47l1.98-.808-.19-.463-.189-.463L24 45.92l-1.601-.654-.19.463Zm7.539-1.615.189.463 3.958-1.615-.19-.463-.188-.463-3.958 1.615.189.463Zm7.916-3.23.19.462 1.978-.807.198-2.222-.498-.044-.498-.044-.144 1.614-1.415.577.19.463Zm2.264-7.053.498.044.396-4.442-.498-.045-.498-.044-.396 4.442.498.045Zm.792-8.885.498.044.396-4.442-.498-.044-.498-.045-.396 4.443.498.044Zm.791-8.885.498.045.396-4.443-.498-.044-.498-.044-.396 4.442.498.044Z" fill="#7859CF"></path></svg></svg>